<svg width="152" height="40" viewBox="0 0 152 40" fill="none" xmlns="http://www.w3.org/2000/svg">
<g id="Social">
<g id="Facebook">
<rect id="Rectangle 3972" width="40" height="40" rx="20" fill="white"/>
<path id="f" d="M24.3448 21.6068L24.863 18.1942H21.621V15.9806C21.621 15.0467 22.0731 14.1359 23.5251 14.1359H25V11.2306C25 11.2306 23.6621 11 22.3836 11C19.7124 11 17.9681 12.6348 17.9681 15.5932V18.1942H15V21.6068H17.9681V29.8571C18.5639 29.9516 19.1735 30 19.7945 30C20.4155 30 21.0251 29.9516 21.621 29.8571V21.6068H24.3448Z" fill="#3B599C"/>
</g>
<g id="Twitter">
<rect id="Rectangle 3973" x="56" width="40" height="40" rx="20" fill="white"/>
<path id="twitter" d="M72.9638 27C70.7686 27 68.7223 26.4273 67 25.4391C68.4623 25.524 71.043 25.3207 72.6481 23.9473C70.2334 23.8479 69.1445 22.1866 69.0024 21.4767C69.2076 21.5477 70.1861 21.6329 70.7385 21.4341C67.9608 20.8093 67.5347 18.6227 67.6294 17.9554C68.1502 18.2819 69.034 18.3955 69.3812 18.3671C66.7929 16.7059 67.7241 14.2069 68.1817 13.6673C70.0392 15.9757 72.823 17.2722 76.2668 17.3443C76.2019 17.0888 76.1676 16.8229 76.1676 16.5497C76.1676 14.5893 77.9341 13 80.1132 13C81.2517 13 82.2776 13.4339 82.9978 14.1278C83.7586 13.9679 84.9036 13.5935 85.4634 13.2698C85.1813 14.1785 84.3028 14.9366 83.7715 15.2175C83.7672 15.2079 83.7759 15.2271 83.7715 15.2175C84.2382 15.1542 85.5011 14.9365 86 14.6329C85.7533 15.1434 84.822 15.9922 84.0577 16.4674C84.1999 22.0927 79.4019 27 72.9638 27Z" fill="#58A7DE"/>
</g>
<g id="Instagram">
<rect id="Rectangle 3974" x="112" width="40" height="40" rx="20" fill="white"/>
<g id="instagram">
<path d="M139.15 15.275C139.15 16.062 138.512 16.7 137.725 16.7C136.938 16.7 136.3 16.062 136.3 15.275C136.3 14.488 136.938 13.85 137.725 13.85C138.512 13.85 139.15 14.488 139.15 15.275Z" fill="url(#paint0_linear_1_215)"/>
<path fill-rule="evenodd" clip-rule="evenodd" d="M132.5 25.25C135.123 25.25 137.25 23.1234 137.25 20.5C137.25 17.8766 135.123 15.75 132.5 15.75C129.877 15.75 127.75 17.8766 127.75 20.5C127.75 23.1234 129.877 25.25 132.5 25.25ZM132.5 23.35C134.074 23.35 135.35 22.074 135.35 20.5C135.35 18.926 134.074 17.65 132.5 17.65C130.926 17.65 129.65 18.926 129.65 20.5C129.65 22.074 130.926 23.35 132.5 23.35Z" fill="url(#paint1_linear_1_215)"/>
<path fill-rule="evenodd" clip-rule="evenodd" d="M123 20.12C123 16.9277 123 15.3316 123.621 14.1123C124.168 13.0397 125.04 12.1677 126.112 11.6213C127.332 11 128.928 11 132.12 11H132.88C136.072 11 137.668 11 138.888 11.6213C139.96 12.1677 140.832 13.0397 141.379 14.1123C142 15.3316 142 16.9277 142 20.12V20.88C142 24.0723 142 25.6684 141.379 26.8877C140.832 27.9603 139.96 28.8323 138.888 29.3787C137.668 30 136.072 30 132.88 30H132.12C128.928 30 127.332 30 126.112 29.3787C125.04 28.8323 124.168 27.9603 123.621 26.8877C123 25.6684 123 24.0723 123 20.88V20.12ZM132.12 12.9H132.88C134.508 12.9 135.614 12.9015 136.469 12.9713C137.302 13.0394 137.728 13.1628 138.025 13.3142C138.74 13.6785 139.322 14.2598 139.686 14.9748C139.837 15.272 139.961 15.698 140.029 16.531C140.099 17.3861 140.1 18.4925 140.1 20.12V20.88C140.1 22.5075 140.099 23.6139 140.029 24.469C139.961 25.302 139.837 25.728 139.686 26.0252C139.322 26.7402 138.74 27.3215 138.025 27.6858C137.728 27.8372 137.302 27.9606 136.469 28.0287C135.614 28.0985 134.508 28.1 132.88 28.1H132.12C130.492 28.1 129.386 28.0985 128.531 28.0287C127.698 27.9606 127.272 27.8372 126.975 27.6858C126.26 27.3215 125.678 26.7402 125.314 26.0252C125.163 25.728 125.039 25.302 124.971 24.469C124.901 23.6139 124.9 22.5075 124.9 20.88V20.12C124.9 18.4925 124.901 17.3861 124.971 16.531C125.039 15.698 125.163 15.272 125.314 14.9748C125.678 14.2598 126.26 13.6785 126.975 13.3142C127.272 13.1628 127.698 13.0394 128.531 12.9713C129.386 12.9015 130.492 12.9 132.12 12.9Z" fill="url(#paint2_linear_1_215)"/>
</g>
</g>
</g>
<defs>
<linearGradient id="paint0_linear_1_215" x1="132.5" y1="11" x2="132.5" y2="30" gradientUnits="userSpaceOnUse">
<stop offset="0.0625" stop-color="#D82D7E"/>
<stop offset="1" stop-color="#FBA756"/>
</linearGradient>
<linearGradient id="paint1_linear_1_215" x1="132.5" y1="11" x2="132.5" y2="30" gradientUnits="userSpaceOnUse">
<stop offset="0.0625" stop-color="#D82D7E"/>
<stop offset="1" stop-color="#FBA756"/>
</linearGradient>
<linearGradient id="paint2_linear_1_215" x1="132.5" y1="11" x2="132.5" y2="30" gradientUnits="userSpaceOnUse">
<stop offset="0.0625" stop-color="#D82D7E"/>
<stop offset="1" stop-color="#FBA756"/>
</linearGradient>
</defs>
</svg>
